<svg width="200" height="200" viewBox="0 0 200 200" xmlns="http://www.w3.org/2000/svg">
  <rect width="200" height="200" rx="32" fill="#E8F8EF"/>
  <g transform="translate(100,108)">
    <rect x="-44" y="8" width="20" height="28" rx="4" fill="#A8E4C0"/>
    <rect x="-18" y="-8" width="20" height="44" rx="4" fill="#5DD08A"/>
    <rect x="8" y="-28" width="20" height="64" rx="4" fill="#1EA85A"/>
    <rect x="34" y="-14" width="20" height="50" rx="4" fill="#5DD08A"/>
    <line x1="-48" y1="38" x2="58" y2="38" stroke="#1EA85A" stroke-width="2" stroke-linecap="round" opacity="0.45"/>
    <path d="M-34 16 Q2 -18 44 -24" fill="none" stroke="#1a3a28" stroke-width="2.2" stroke-linecap="round" stroke-dasharray="4,3"/>
    <circle cx="38" cy="-44" r="12" fill="#1EA85A"/>
    <path d="M38 -50 L39.8 -45.5 L44 -45 L40.8 -42 L41.8 -38 L38 -40 L34.2 -38 L35.2 -42 L32 -45 L36.2 -45.5 Z" fill="#ffffff"/>
  </g>
</svg>
