<svg width="200" height="200" viewBox="0 0 200 200" xmlns="http://www.w3.org/2000/svg">
  <rect width="200" height="200" rx="32" fill="#E8F8EF"/>
  <g transform="translate(100,100)">
    <circle cx="0" cy="0" r="18" fill="#1EA85A"/>
    <path d="M-7 0 L-2 5 L9 -6" fill="none" stroke="#ffffff" stroke-width="2.5" stroke-linecap="round" stroke-linejoin="round"/>
    <line x1="0" y1="-18" x2="0" y2="-36" stroke="#1EA85A" stroke-width="2" stroke-dasharray="4,3"/>
    <line x1="18" y1="0" x2="36" y2="0" stroke="#1EA85A" stroke-width="2" stroke-dasharray="4,3"/>
    <line x1="0" y1="18" x2="0" y2="36" stroke="#1EA85A" stroke-width="2" stroke-dasharray="4,3"/>
    <line x1="-18" y1="0" x2="-36" y2="0" stroke="#1EA85A" stroke-width="2" stroke-dasharray="4,3"/>
    <rect x="-13" y="-52" width="26" height="26" rx="7" fill="#5DD08A"/>
    <text x="0" y="-35" text-anchor="middle" font-family="sans-serif" font-size="12" font-weight="700" fill="#ffffff">S</text>
    <rect x="38" y="-13" width="26" height="26" rx="7" fill="#A8E4C0"/>
    <text x="51" y="4" text-anchor="middle" font-family="sans-serif" font-size="12" font-weight="700" fill="#1a3a28">G</text>
    <rect x="-13" y="26" width="26" height="26" rx="7" fill="#5DD08A"/>
    <text x="0" y="43" text-anchor="middle" font-family="sans-serif" font-size="12" font-weight="700" fill="#ffffff">W</text>
    <rect x="-64" y="-13" width="26" height="26" rx="7" fill="#A8E4C0"/>
    <text x="-51" y="4" text-anchor="middle" font-family="sans-serif" font-size="12" font-weight="700" fill="#1a3a28">D</text>
  </g>
</svg>
